<?xml version="1.0" encoding="UTF-8"?>
<svg id="Layer_1" xmlns="http://www.w3.org/2000/svg" version="1.1" viewBox="0 0 136.6 60.1">
  <!-- Generator: Adobe Illustrator 30.1.0, SVG Export Plug-In . SVG Version: 2.1.1 Build 136)  -->
  <defs>
    <style>
      .st0 {
        fill: #fff;
      }
    </style>
  </defs>
  <g id="Group_822">
    <path id="Path_1597" class="st0" d="M72.7,41.5l-1.2,3.9c-2.6-.2-4.4-1.2-5.3-3.5-1.6,2.4-4.3,3.7-7.2,3.6-4.8,0-7.8-3.1-7.8-7.4s4-8.1,11-8.1h3v-1.4c0-3.2-1.5-4.2-4.6-4.2-2.2.1-4.3.5-6.4,1.3l-1.4-4c2.8-1.1,5.8-1.7,8.8-1.7,6.4,0,9.3,3,9.3,8.3v10.1c0,1.9.7,2.6,1.8,3.1ZM65.2,38.2v-4.8h-2.5c-3.8,0-5.7,1.4-5.7,4.2s1.2,3.7,3.4,3.7c2.1-.1,3.9-1.3,4.8-3.1h0Z"/>
    <path id="Path_1598" class="st0" d="M90.2,20.3l-1,5.7c-.7-.2-1.4-.3-2.1-.3-2.9,0-4.4,2.1-5.3,6.2v12.9h-5.8v-24.2h5.1l.5,4.7c1.1-3.5,3.5-5.4,6.3-5.4.7.1,1.5.2,2.3.4Z"/>
    <path id="Path_1599" class="st0" d="M124.6,27.3v17.5h-5.8v-16.6c0-3-1.2-3.9-2.6-3.9-2,0-3.2,1.4-4.6,3.6v16.8h-5.9v-16.5c0-3-1.2-3.9-2.6-3.9-2.1,0-3.3,1.4-4.6,3.6v16.8h-5.8v-24.1h5l.5,3.1c1.5-2.4,4.1-3.8,7-3.8,2.6-.1,5,1.6,5.8,4.1,1.8-2.5,4.1-4.1,7.3-4.1,3.8,0,6.3,2.8,6.3,7.4Z"/>
    <path id="Path_1600" class="st0" d="M136.2,12c0,2-1.5,3.7-3.6,3.8-2,0-3.7-1.5-3.8-3.6s1.5-3.7,3.6-3.8h0c1.9-.1,3.6,1.4,3.7,3.3,0,.1,0,.2,0,.3ZM129.6,44.8v-24.2h5.8v24.1h-5.8Z"/>
  </g>
  <g id="Group_824">
    <path id="Path_1615" class="st0" d="M19.9,29.4l1.1-1.6c.6-.9,1.1-1.7,1.1-1.7,0,0-.9-.1-2-.2l-4-.3c-.7-.1-1.3.3-1.5,1-.1.3,0,.5.1.8l.3.9c.3,1.1,2.2,1.9,2.8,2.2.5.3,1.5-.2,2.1-1.1Z"/>
    <path id="Path_1616" class="st0" d="M17.6,40.4c-.4-.8-1.1-1.5-2-1.8-.4-.1-1.2.6-1.8,1.5l-3.9,5.8.9.9,5.6-3.5c1.1-.6,1.5-1.8,1.2-2.9Z"/>
    <path id="Path_1617" class="st0" d="M31.2,31.9l-6.5-4.1c-1-.6-2.2-.3-2.8.6l-1.2,1.7c-.6.7-.8,1.7-.5,2.6l.2.6c.3,1.2,0,2.5-.8,3.4s-1.1,2-.8,3.1c.3.7,1.1,1.1,1.8.8.2,0,.3,0,.4-.3l10.2-6.4c.6-.3.9-.9.6-1.5,0-.2-.3-.4-.6-.5Z"/>
    <path id="Path_1618" class="st0" d="M18.2,24.8c1.1.1,1.2-.3.3-.9l-4.6-2.9c-.9-.6-1.4-.2-1.1.8l.2.8c.4,1.1,1.4,1.9,2.6,2.1h2.6Z"/>
    <path id="Path_1619" class="st0" d="M39.6,27.4l-11.7-.8c-1.1-.1-1.2.3-.3.9l5.3,3.4c1.1.6,2.3.6,3.4,0l3.6-2.2c.9-.7.8-1.2-.3-1.3Z"/>
    <path id="Path_1620" class="st0" d="M44.3,22.5l-11.1-11c-.4.7-.9,1.4-1.2,1.9-.6.7-.9,1.5-.9,2.3s.2,1.2.4,1.8c.3,1.6-.6,3.3-2.2,3.8-.7.2-1.5.2-2.2.5-.8.3-1.5.9-2,1.7-.2.3-1.2,1.5-.7,1.8.1.1.2.1.3.1,5.4.4,10.9.7,16.3,1.2,1.3,0,2.6-.3,3.7-.9h.2c0-.1,0-.3,0-.3.3-1.2,0-2.2-.7-2.9Z"/>
    <path id="Path_1621" class="st0" d="M38,31.9c-.6.3-.9.9-.6,1.5,0,.3.3.5.6.6l4,2.5,2.2-8.4c-.5.1-.9.3-1.3.6l-4.9,3.2Z"/>
    <path id="Path_1622" class="st0" d="M12.4,36c-.4-1.3-.2-2.7.7-3.8.8-.9,1.1-2.2.7-3.4l-.5-1.4c-.4-1.1-1.4-1.9-2.6-2.1l-7.7-.5L.4,34.6c-.2.9,0,1.9.7,2.6l8.1,8,3.7-5.5c.9-1.4-.2-2.4-.5-3.7Z"/>
    <path id="Path_1623" class="st0" d="M9,14.3l-.5-1.7-1,.3c-.6,0-1.1.5-1.5,1l1.9,1.2c1,.6,1.4.2,1.1-.8Z"/>
    <path id="Path_1624" class="st0" d="M11.7,22.5l-.6-1.7c-.5-1.2-1.3-2.2-2.3-3l-3.4-2.2-2.1,8.2,7.1.5c.7.1,1.3-.3,1.5-1,0-.3-.1-.6-.2-.8Z"/>
    <path id="Path_1625" class="st0" d="M13,18.3l8.4,5.3c1.2.8,2.5,0,3.3-1.1,1-1.4.5-2.4.3-3.9-.2-1.6.8-3.2,2.3-3.7.8,0,1.5-.3,2.2-.5.7-.4,1.4-1,1.8-1.8.3-.5.8-1.2,1.2-1.8l-2.7-2.7c-.7-.7-1.7-.9-2.6-.7l-17.5,4.9,1,3.1c.5,1.1,1.3,2.2,2.3,2.9Z"/>
    <path id="Path_1626" class="st0" d="M17.1,45.1l-4.9,3.1,3.4,3.4c.7.7,1.7.9,2.6.7l3-.8-1.8-5.5c-.2-.8-1-1.3-1.8-1.1-.2,0-.4,0-.5.2Z"/>
    <path id="Path_1627" class="st0" d="M32.9,35.1l-11.3,7.1c-1,.7-1.4,1.9-1.1,3l1.9,5.9,15.4-4.2c.9-.3,1.7-1,1.9-1.9l1.7-6.5-5.1-3.4c-1.1-.6-2.4-.6-3.4,0Z"/>
  </g>
</svg>